<svg id="Layer_1" data-name="Layer 1" xmlns="http://www.w3.org/2000/svg" xmlns:xlink="http://www.w3.org/1999/xlink" viewBox="0 0 320 100"><defs><style>.cls-1{fill:none;}.cls-2{clip-path:url(#clip-path);}.cls-3{fill:#fff;}.cls-4{fill:#c4c4c4;}.cls-5{fill:#e0e0e0;}.cls-6{fill:#f2f2f2;}</style><clipPath id="clip-path"><rect class="cls-1" y="-46" width="320" height="568"/></clipPath></defs><title>Artboard 1</title><g id="Canvas"><g class="cls-2"><g id="iPhone_SE" data-name="iPhone SE"><path class="cls-3" d="M0-46H320V522H0Z"/><g id="Rectangle"><path id="path2_fill" data-name="path2 fill" class="cls-4" d="M0-16H320V129H0Z"/></g><g id="Ellipse"><path id="path0_fill" data-name="path0 fill" class="cls-5" d="M105,32A35,35,0,1,1,70-3,35,35,0,0,1,105,32Z"/></g><g id="greenuser13"><path id="path3_fill" data-name="path3 fill" class="cls-6" d="M143.4717,11.2471a4.3477,4.3477,0,0,1,.8066-2.7412,2.6341,2.6341,0,0,1,2.1875-1.0391,2.302,2.302,0,0,1,1.8936.834l.082-.6973h1.791v7.15a3.1427,3.1427,0,0,1-.4443,1.6885,2.81,2.81,0,0,1-1.2373,1.0937,4.361,4.361,0,0,1-1.873.376,4.02,4.02,0,0,1-1.5859-.3281,2.79,2.79,0,0,1-1.1689-.834l.875-1.2031a2.3143,2.3143,0,0,0,1.791.8271,1.6857,1.6857,0,0,0,1.2236-.4238,1.5655,1.5655,0,0,0,.4375-1.1895v-.3964a2.2853,2.2853,0,0,1-1.7978.7724,2.63,2.63,0,0,1-2.16-1.039,4.3611,4.3611,0,0,1-.82-2.7686Zm1.9756.1435a2.7084,2.7084,0,0,0,.4033,1.5791,1.2858,1.2858,0,0,0,1.1074.5674,1.3725,1.3725,0,0,0,1.292-.6767V9.75a1.3692,1.3692,0,0,0-1.2783-.6768,1.3,1.3,0,0,0-1.1211.5811A3.0542,3.0542,0,0,0,145.4473,11.3906ZM155.9131,9.456a5.3692,5.3692,0,0,0-.711-.0547,1.4471,1.4471,0,0,0-1.47.7588V15h-1.9756V7.6035h1.8662l.0547.8818a1.8306,1.8306,0,0,1,1.6475-1.0185,2.07,2.07,0,0,1,.6152.0889Zm4.2246,5.6806a3.6428,3.6428,0,0,1-2.6523-.998,3.554,3.554,0,0,1-1.0186-2.6592v-.1914a4.4465,4.4465,0,0,1,.4307-1.9893,3.1417,3.1417,0,0,1,1.2168-1.3535,3.4236,3.4236,0,0,1,1.8046-.4785,3.0589,3.0589,0,0,1,2.3858.957,3.8792,3.8792,0,0,1,.875,2.7139v.8066h-4.71a1.8426,1.8426,0,0,0,.5742,1.1621,1.7587,1.7587,0,0,0,1.2237.4375,2.1326,2.1326,0,0,0,1.7842-.8271l.9707,1.0869a2.9919,2.9919,0,0,1-1.2032.9844A3.98,3.98,0,0,1,160.1377,15.1367Zm-.2256-6.07a1.2479,1.2479,0,0,0-.957.3965,2.0632,2.0632,0,0,0-.4649,1.1348h2.7481V10.44a1.4471,1.4471,0,0,0-.3555-1.0117A1.27,1.27,0,0,0,159.9121,9.0664Zm7.8,6.07a3.643,3.643,0,0,1-2.6523-.998,3.554,3.554,0,0,1-1.0186-2.6592v-.1914a4.4465,4.4465,0,0,1,.4307-1.9893,3.1417,3.1417,0,0,1,1.2168-1.3535,3.4237,3.4237,0,0,1,1.8047-.4785,3.0588,3.0588,0,0,1,2.3857.957,3.8792,3.8792,0,0,1,.875,2.7139v.8066h-4.71a1.8427,1.8427,0,0,0,.5743,1.1621,1.7583,1.7583,0,0,0,1.2236.4375,2.1325,2.1325,0,0,0,1.7842-.8271l.9707,1.0869a2.9916,2.9916,0,0,1-1.2031.9844A3.981,3.981,0,0,1,167.7119,15.1367Zm-.2256-6.07a1.2479,1.2479,0,0,0-.957.3965,2.0632,2.0632,0,0,0-.4648,1.1348h2.748V10.44a1.4471,1.4471,0,0,0-.3555-1.0117A1.27,1.27,0,0,0,167.4863,9.0664ZM173.7,7.6035l.0615.8545a2.5825,2.5825,0,0,1,2.126-.9912,2.1462,2.1462,0,0,1,1.75.69,3.2213,3.2213,0,0,1,.5879,2.0644V15H176.25V10.27a1.2685,1.2685,0,0,0-.2734-.9092,1.2149,1.2149,0,0,0-.9092-.2871,1.3591,1.3591,0,0,0-1.251.7109V15h-1.9756V7.6035Zm10.459,6.6445a2.4775,2.4775,0,0,1-2.0235.8887,2.3474,2.3474,0,0,1-1.8183-.6836,2.9291,2.9291,0,0,1-.6358-2.0029V7.6035h1.9756v4.7783q0,1.1553,1.0528,1.1553a1.4267,1.4267,0,0,0,1.3808-.6973V7.6035h1.9824V15h-1.8593Zm7.41-1.2919a.6286.6286,0,0,0-.3623-.5674,3.9333,3.9333,0,0,0-1.1484-.376Q187.42,11.459,187.42,9.7705a2.026,2.026,0,0,1,.8135-1.6406,3.2979,3.2979,0,0,1,2.14-.6631,3.5324,3.5324,0,0,1,2.2491.6631,2.0867,2.0867,0,0,1,.8476,1.7227h-1.9756a.9444.9444,0,0,0-.2734-.6973,1.1483,1.1483,0,0,0-.8545-.28,1.182,1.182,0,0,0-.7724.2256.7121.7121,0,0,0-.2735.5742.6182.6182,0,0,0,.3076.5332,3.3614,3.3614,0,0,0,1.0528.3486,8.3185,8.3185,0,0,1,1.2441.3281A2.044,2.044,0,0,1,193.49,12.874a1.938,1.938,0,0,1-.8681,1.6406,3.76,3.76,0,0,1-2.2422.6221,3.9711,3.9711,0,0,1-1.6543-.3281,2.8113,2.8113,0,0,1-1.1279-.9092,2.1272,2.1272,0,0,1-.41-1.251h1.873a1.0319,1.0319,0,0,0,.39.8067,1.5457,1.5457,0,0,0,.9707.28,1.4313,1.4313,0,0,0,.8545-.212A.6762.6762,0,0,0,191.5693,12.9561Zm6.6036,2.1806a3.6431,3.6431,0,0,1-2.6524-.998,3.5543,3.5543,0,0,1-1.0185-2.6592v-.1914a4.4465,4.4465,0,0,1,.4306-1.9893,3.1417,3.1417,0,0,1,1.2168-1.3535,3.424,3.424,0,0,1,1.8047-.4785,3.0587,3.0587,0,0,1,2.3857.957,3.8787,3.8787,0,0,1,.875,2.7139v.8066h-4.71a1.8426,1.8426,0,0,0,.5742,1.1621,1.7585,1.7585,0,0,0,1.2236.4375,2.1325,2.1325,0,0,0,1.7842-.8271l.9707,1.0869a2.9909,2.9909,0,0,1-1.2031.9844A3.9806,3.9806,0,0,1,198.1729,15.1367Zm-.2256-6.07a1.248,1.248,0,0,0-.9571.3965,2.0639,2.0639,0,0,0-.4648,1.1348h2.748V10.44a1.4475,1.4475,0,0,0-.3554-1.0117A1.27,1.27,0,0,0,197.9473,9.0664Zm8.5517.39a5.3679,5.3679,0,0,0-.7109-.0547,1.447,1.447,0,0,0-1.47.7588V15h-1.9756V7.6035h1.8662l.0547.8818a1.83,1.83,0,0,1,1.6474-1.0185,2.07,2.07,0,0,1,.6153.0889ZM212.1729,15h-1.9756V7.3848l-2.3584.7314V6.51l4.122-1.4766h.212Zm5.25-5.8516h1.0527a1.4832,1.4832,0,0,0,1.1142-.376,1.3774,1.3774,0,0,0,.3623-.9981,1.2118,1.2118,0,0,0-.3623-.9365,1.3781,1.3781,0,0,0-.9843-.335,1.4475,1.4475,0,0,0-.95.3144.985.985,0,0,0-.3828.8066h-1.9756a2.4278,2.4278,0,0,1,.417-1.3945,2.8192,2.8192,0,0,1,1.1757-.9707,3.9475,3.9475,0,0,1,1.668-.3486,3.71,3.71,0,0,1,2.4746.7588,2.5672,2.5672,0,0,1,.8955,2.0781,2.0943,2.0943,0,0,1-.417,1.2578,2.7088,2.7088,0,0,1-1.0937.8818,2.3311,2.3311,0,0,1,1.668,2.3242,2.6162,2.6162,0,0,1-.9707,2.126,3.8755,3.8755,0,0,1-2.5567.8,3.7013,3.7013,0,0,1-2.44-.7861,2.5713,2.5713,0,0,1-.9434-2.0781h1.9756a1.1484,1.1484,0,0,0,.417.916,1.7606,1.7606,0,0,0,2.14-.0137,1.2916,1.2916,0,0,0,.4033-.9912q0-1.49-1.6406-1.49h-1.0459Z"/></g><g id="Hi_I_am_a_huge_fan_of_flowers._They_make_me_very_happy." data-name="Hi! I am a huge fan of flowers. They make me very happy."><path id="path4_fill" data-name="path4 fill" class="cls-6" d="M35.9893,95H33.9385V90.7344h-3.999V95H27.8887V85.0469h2.0508V89.08h3.999V85.0469h2.0508Zm3.7529,0H37.76V87.6035h1.9824Zm-2.0986-9.3105a.9784.9784,0,0,1,.2939-.7314,1.2863,1.2863,0,0,1,1.62,0,1.04,1.04,0,0,1-.0068,1.47,1.11,1.11,0,0,1-.8.2871,1.1348,1.1348,0,0,1-.8067-.2871A.9754.9754,0,0,1,37.6436,85.6895Zm5.7421,6.2549H41.7451l-.2324-6.8975h2.1055Zm-.82,1.08a1.0949,1.0949,0,0,1,.8.294,1.0642,1.0642,0,0,1,0,1.497,1.0949,1.0949,0,0,1-.8.294,1.11,1.11,0,0,1-.8-.294,1.0732,1.0732,0,0,1,0-1.49A1.0956,1.0956,0,0,1,42.5654,93.0244ZM50.9873,95H48.9365V85.0469h2.0508Zm9.55,0a2.1947,2.1947,0,0,1-.1982-.6631,2.39,2.39,0,0,1-1.8662.8,2.6387,2.6387,0,0,1-1.8047-.6289,2.0268,2.0268,0,0,1-.711-1.5859,2.093,2.093,0,0,1,.8682-1.8047,4.3173,4.3173,0,0,1,2.5225-.6357h.9091v-.4238a1.2084,1.2084,0,0,0-.2666-.82,1.0244,1.0244,0,0,0-.8271-.3076,1.1909,1.1909,0,0,0-.7861.2393.8171.8171,0,0,0-.28.6563H56.1211a1.9847,1.9847,0,0,1,.3965-1.1895,2.597,2.597,0,0,1,1.1211-.8545,4.0467,4.0467,0,0,1,1.6269-.3144,3.2039,3.2039,0,0,1,2.167.69,2.3882,2.3882,0,0,1,.8067,1.9277v3.206a3.5356,3.5356,0,0,0,.2939,1.5928V95Zm-1.6338-1.374a1.7263,1.7263,0,0,0,.8067-.1914,1.3,1.3,0,0,0,.5468-.5264V91.6367h-.7382q-1.4835,0-1.5791,1.0254l-.0069.1162a.7908.7908,0,0,0,.26.6084A1.009,1.009,0,0,0,58.9033,93.626Zm6.7061-6.0225.0615.8271a2.5994,2.5994,0,0,1,2.126-.9639,1.9728,1.9728,0,0,1,1.9619,1.1279A2.54,2.54,0,0,1,71.98,87.4668a2.2006,2.2006,0,0,1,1.791.7041,3.2063,3.2063,0,0,1,.5879,2.1055V95H72.377V90.2832a1.3939,1.3939,0,0,0-.2461-.916,1.0833,1.0833,0,0,0-.8682-.294,1.2331,1.2331,0,0,0-1.23.8477L70.0391,95H68.0635V90.29a1.3909,1.3909,0,0,0-.253-.93,1.1012,1.1012,0,0,0-.8613-.2871,1.28,1.28,0,0,0-1.2168.6973V95H63.7568V87.6035ZM83.6562,95a2.1948,2.1948,0,0,1-.1982-.6631,2.39,2.39,0,0,1-1.8662.8,2.6389,2.6389,0,0,1-1.8047-.6289,2.027,2.027,0,0,1-.7109-1.5859,2.0932,2.0932,0,0,1,.8681-1.8047,4.3177,4.3177,0,0,1,2.5225-.6357h.9092v-.4238a1.2089,1.2089,0,0,0-.2666-.82,1.0246,1.0246,0,0,0-.8272-.3076,1.1908,1.1908,0,0,0-.7861.2393.8171.8171,0,0,0-.28.6563H79.24a1.9847,1.9847,0,0,1,.3965-1.1895,2.597,2.597,0,0,1,1.1211-.8545,4.0471,4.0471,0,0,1,1.627-.3144,3.2041,3.2041,0,0,1,2.167.69,2.3885,2.3885,0,0,1,.8066,1.9277v3.206a3.5369,3.5369,0,0,0,.2939,1.5928V95Zm-1.6337-1.374a1.7262,1.7262,0,0,0,.8066-.1914,1.3,1.3,0,0,0,.5469-.5264V91.6367h-.7383q-1.4833,0-1.5791,1.0254l-.0068.1162a.7908.7908,0,0,0,.26.6084A1.0092,1.0092,0,0,0,82.0225,93.626ZM92.29,88.41a2.4659,2.4659,0,0,1,1.9756-.9434q2.4063,0,2.44,2.7959V95H94.73V90.3174a1.36,1.36,0,0,0-.2735-.9365,1.1644,1.1644,0,0,0-.9091-.3076,1.3447,1.3447,0,0,0-1.2579.67V95H90.3145V84.5H92.29Zm10.336,5.8378a2.4775,2.4775,0,0,1-2.0235.8887,2.3474,2.3474,0,0,1-1.8183-.6836,2.9291,2.9291,0,0,1-.6358-2.0029V87.6035h1.9756v4.7783q0,1.1553,1.0528,1.1553a1.4267,1.4267,0,0,0,1.3808-.6973V87.6035H104.54V95h-1.8593Zm3.1172-3.0009a4.3474,4.3474,0,0,1,.8066-2.7412,2.6341,2.6341,0,0,1,2.1875-1.0391,2.3021,2.3021,0,0,1,1.8936.834l.082-.6973h1.791v7.15a3.1429,3.1429,0,0,1-.4443,1.6885,2.81,2.81,0,0,1-1.2373,1.0937,4.3612,4.3612,0,0,1-1.8731.376,4.02,4.02,0,0,1-1.5859-.3281,2.79,2.79,0,0,1-1.169-.834l.875-1.2031a2.3144,2.3144,0,0,0,1.7911.8271,1.6859,1.6859,0,0,0,1.2236-.4238,1.5653,1.5653,0,0,0,.4375-1.1895v-.3964a2.2853,2.2853,0,0,1-1.7979.7724,2.63,2.63,0,0,1-2.16-1.039,4.361,4.361,0,0,1-.82-2.7686Zm1.9756.1435a2.7082,2.7082,0,0,0,.4033,1.5791,1.2858,1.2858,0,0,0,1.1074.5674,1.3725,1.3725,0,0,0,1.292-.6767V89.75a1.3691,1.3691,0,0,0-1.2783-.6768,1.3,1.3,0,0,0-1.1211.5811A3.0541,3.0541,0,0,0,107.7188,91.3906Zm9.7138,3.7461a3.643,3.643,0,0,1-2.6523-.998,3.554,3.554,0,0,1-1.0186-2.6592v-.1914a4.4465,4.4465,0,0,1,.4307-1.9893,3.1417,3.1417,0,0,1,1.2168-1.3535,3.4237,3.4237,0,0,1,1.8047-.4785,3.0589,3.0589,0,0,1,2.3857.957,3.8792,3.8792,0,0,1,.875,2.7139v.8066h-4.71a1.8432,1.8432,0,0,0,.5743,1.1621,1.7583,1.7583,0,0,0,1.2236.4375,2.1325,2.1325,0,0,0,1.7842-.8271l.9707,1.0869a2.9916,2.9916,0,0,1-1.2031.9844A3.9807,3.9807,0,0,1,117.4326,95.1367Zm-.2256-6.07a1.2479,1.2479,0,0,0-.957.3965,2.0632,2.0632,0,0,0-.4648,1.1348h2.748V90.44a1.4471,1.4471,0,0,0-.3555-1.0117A1.27,1.27,0,0,0,117.207,89.0664ZM125.6289,95V89.0527h-1.1006V87.6035h1.1006v-.6289a2.549,2.549,0,0,1,.7109-1.9277,2.771,2.771,0,0,1,2.0032-.69,4.627,4.627,0,0,1,1.005.1367l-.021,1.5312a2.5136,2.5136,0,0,0-.601-.0615q-1.1145,0-1.115,1.0459v.5947h1.47v1.4492h-1.47V95Zm8.7641,0a2.1689,2.1689,0,0,1-.199-.6631,2.3887,2.3887,0,0,1-1.866.8,2.6416,2.6416,0,0,1-1.805-.6289,2.0268,2.0268,0,0,1-.711-1.5859,2.0931,2.0931,0,0,1,.869-1.8047,4.3158,4.3158,0,0,1,2.522-.6357h.909v-.4238a1.2121,1.2121,0,0,0-.266-.82,1.0243,1.0243,0,0,0-.827-.3076,1.194,1.194,0,0,0-.787.2393.82.82,0,0,0-.28.6563h-1.975a1.9861,1.9861,0,0,1,.396-1.1895,2.5955,2.5955,0,0,1,1.121-.8545,4.0488,4.0488,0,0,1,1.627-.3144,3.2027,3.2027,0,0,1,2.167.69,2.3878,2.3878,0,0,1,.807,1.9277v3.206a3.52,3.52,0,0,0,.294,1.5928V95Zm-1.634-1.374a1.7252,1.7252,0,0,0,.806-.1914,1.2923,1.2923,0,0,0,.547-.5264V91.6367h-.738q-1.4835,0-1.579,1.0254l-.007.1162a.7917.7917,0,0,0,.26.6084A1.0086,1.0086,0,0,0,132.759,93.626Zm6.672-6.0225.061.8545a2.5825,2.5825,0,0,1,2.126-.9912,2.1462,2.1462,0,0,1,1.75.69,3.22,3.22,0,0,1,.588,2.0644V95H141.98V90.27a1.27,1.27,0,0,0-.273-.9092,1.2136,1.2136,0,0,0-.909-.2871,1.3591,1.3591,0,0,0-1.251.7109V95h-1.976V87.6035Zm9.208,3.63a4.3938,4.3938,0,0,1,.423-1.9619,3.1163,3.1163,0,0,1,1.217-1.333,3.5789,3.5789,0,0,1,1.853-.4717,3.3554,3.3554,0,0,1,2.44.916,3.6668,3.6668,0,0,1,1.06,2.4883l.014.5059a3.8764,3.8764,0,0,1-.951,2.7344,3.6909,3.6909,0,0,1-5.106,0,3.94,3.94,0,0,1-.95-2.789Zm1.975.1435a2.7686,2.7686,0,0,0,.397,1.6132,1.4313,1.4313,0,0,0,2.256.0069,3.0416,3.0416,0,0,0,.403-1.7637,2.7363,2.7363,0,0,0-.403-1.6,1.313,1.313,0,0,0-1.135-.5674,1.2874,1.2874,0,0,0-1.121.5674A3.0445,3.0445,0,0,0,150.614,91.377ZM157.402,95V89.0527h-1.1V87.6035h1.1v-.6289a2.5487,2.5487,0,0,1,.711-1.9277,2.7711,2.7711,0,0,1,2.003-.69,4.6115,4.6115,0,0,1,1.005.1367l-.02,1.5312a2.5225,2.5225,0,0,0-.602-.0615q-1.1145,0-1.114,1.0459v.5947h1.469v1.4492h-1.469V95Zm12.92-8.9687a9.501,9.501,0,0,0-1.093-.0684q-1.341,0-1.34,1.1416v.499h1.469v1.4492h-1.469V95h-1.983V89.0527h-1.1V87.6035h1.1v-.5742a2.5151,2.5151,0,0,1,.807-1.9756,3.2871,3.2871,0,0,1,2.242-.6973q1.032,0,3.35.2188V95h-1.983Zm3.323,5.2022a4.3938,4.3938,0,0,1,.423-1.9619,3.1163,3.1163,0,0,1,1.217-1.333,3.5789,3.5789,0,0,1,1.853-.4717,3.3554,3.3554,0,0,1,2.44.916,3.6668,3.6668,0,0,1,1.06,2.4883l.013.5059a3.8758,3.8758,0,0,1-.95,2.7344,3.6909,3.6909,0,0,1-5.106,0,3.94,3.94,0,0,1-.95-2.789Zm1.975.1435a2.7686,2.7686,0,0,0,.397,1.6132,1.43,1.43,0,0,0,2.255.0069,3.0331,3.0331,0,0,0,.404-1.7637,2.7287,2.7287,0,0,0-.404-1.6,1.31,1.31,0,0,0-1.134-.5674,1.2874,1.2874,0,0,0-1.121.5674A3.0445,3.0445,0,0,0,175.62,91.377Zm12.681.9366.97-4.71h1.908L189.292,95h-1.654l-1.402-4.6553L184.835,95h-1.647l-1.887-7.3965h1.907l.964,4.7031,1.353-4.7031h1.429Zm7.266,2.8232a3.6439,3.6439,0,0,1-2.652-.998,3.5546,3.5546,0,0,1-1.019-2.6592v-.1914a4.4479,4.4479,0,0,1,.431-1.9893,3.1421,3.1421,0,0,1,1.217-1.3535,3.4245,3.4245,0,0,1,1.805-.4785,3.0571,3.0571,0,0,1,2.385.957,3.8759,3.8759,0,0,1,.875,2.7139v.8066h-4.71a1.8444,1.8444,0,0,0,.575,1.1621,1.7563,1.7563,0,0,0,1.223.4375,2.1317,2.1317,0,0,0,1.784-.8271l.971,1.0869a2.9885,2.9885,0,0,1-1.203.9844A3.98,3.98,0,0,1,195.567,95.1367Zm-.225-6.07a1.2476,1.2476,0,0,0-.957.3965,2.0576,2.0576,0,0,0-.465,1.1348h2.748V90.44a1.4464,1.4464,0,0,0-.356-1.0117A1.2676,1.2676,0,0,0,195.342,89.0664Zm8.552.39a5.3716,5.3716,0,0,0-.711-.0547,1.4466,1.4466,0,0,0-1.47.7588V95h-1.976V87.6035h1.867l.054.8818a1.8316,1.8316,0,0,1,1.648-1.0185,2.0751,2.0751,0,0,1,.615.0889Zm4.962,3.5a.6276.6276,0,0,0-.362-.5674,3.9375,3.9375,0,0,0-1.148-.376q-2.6385-.5537-2.639-2.2422a2.0245,2.0245,0,0,1,.814-1.6406,3.2955,3.2955,0,0,1,2.139-.6631,3.5306,3.5306,0,0,1,2.249.6631,2.0874,2.0874,0,0,1,.848,1.7227h-1.976a.9452.9452,0,0,0-.273-.6973,1.1482,1.1482,0,0,0-.855-.28,1.1818,1.1818,0,0,0-.772.2256.7135.7135,0,0,0-.274.5742.6186.6186,0,0,0,.308.5332,3.3678,3.3678,0,0,0,1.053.3486,8.317,8.317,0,0,1,1.244.3281,2.0432,2.0432,0,0,1,1.565,1.9892,1.9371,1.9371,0,0,1-.868,1.6406,3.7594,3.7594,0,0,1-2.242.6221,3.9687,3.9687,0,0,1-1.654-.3281,2.8055,2.8055,0,0,1-1.128-.9092,2.1235,2.1235,0,0,1-.41-1.251h1.873a1.032,1.032,0,0,0,.389.8067,1.5469,1.5469,0,0,0,.971.28,1.4294,1.4294,0,0,0,.854-.212A.6763.6763,0,0,0,208.856,92.9561Zm3.302,1.0732a.9988.9988,0,0,1,.315-.7656,1.1377,1.1377,0,0,1,.799-.294,1.1234,1.1234,0,0,1,.8.294,1.0713,1.0713,0,0,1,.007,1.5244,1.15,1.15,0,0,1-.807.2871,1.1383,1.1383,0,0,1-.799-.2871A.991.991,0,0,1,212.158,94.0293Zm14.67-7.3213h-3.049V95h-2.05V86.708h-3.008V85.0469h8.107Zm2.974,1.7021a2.4644,2.4644,0,0,1,1.975-.9434q2.4075,0,2.441,2.7959V95h-1.976V90.3174a1.3618,1.3618,0,0,0-.273-.9365,1.1663,1.1663,0,0,0-.909-.3076,1.3449,1.3449,0,0,0-1.258.67V95h-1.976V84.5h1.976Zm9.31,6.7265a3.6439,3.6439,0,0,1-2.652-.998,3.5546,3.5546,0,0,1-1.019-2.6592v-.1914a4.4481,4.4481,0,0,1,.431-1.9893,3.1421,3.1421,0,0,1,1.217-1.3535,3.4245,3.4245,0,0,1,1.805-.4785,3.0572,3.0572,0,0,1,2.385.957,3.8759,3.8759,0,0,1,.875,2.7139v.8066h-4.71a1.8444,1.8444,0,0,0,.575,1.1621,1.7563,1.7563,0,0,0,1.223.4375,2.1317,2.1317,0,0,0,1.784-.8271l.971,1.0869a2.9885,2.9885,0,0,1-1.203.9844A3.98,3.98,0,0,1,239.112,95.1367Zm-.225-6.07a1.2476,1.2476,0,0,0-.957.3965,2.0576,2.0576,0,0,0-.465,1.1348h2.748V90.44a1.4463,1.4463,0,0,0-.356-1.0117A1.2676,1.2676,0,0,0,238.887,89.0664Zm7.061,3.1377,1.367-4.6006h2.12l-2.974,8.5449-.164.39a2.2546,2.2546,0,0,1-2.188,1.4492,3.1128,3.1128,0,0,1-.875-.13V96.36l.301.0068a1.6045,1.6045,0,0,0,.834-.1709,1.1162,1.1162,0,0,0,.438-.5674l.232-.6084-2.591-7.417h2.126Zm9.605-4.6006.061.8271a2.6,2.6,0,0,1,2.126-.9639,1.9719,1.9719,0,0,1,1.962,1.1279,2.54,2.54,0,0,1,2.222-1.1279,2.2009,2.2009,0,0,1,1.791.7041,3.2057,3.2057,0,0,1,.588,2.1055V95H262.32V90.2832a1.3939,1.3939,0,0,0-.246-.916,1.0823,1.0823,0,0,0-.868-.294,1.2321,1.2321,0,0,0-1.23.8477L259.982,95h-1.975V90.29a1.3892,1.3892,0,0,0-.253-.93,1.1018,1.1018,0,0,0-.861-.2871,1.28,1.28,0,0,0-1.217.6973V95H253.7V87.6035ZM270.113,95a2.1977,2.1977,0,0,1-.198-.6631,2.39,2.39,0,0,1-1.866.8,2.64,2.64,0,0,1-1.805-.6289,2.0268,2.0268,0,0,1-.711-1.5859,2.0948,2.0948,0,0,1,.868-1.8047,4.3214,4.3214,0,0,1,2.523-.6357h.909v-.4238a1.2075,1.2075,0,0,0-.267-.82,1.0229,1.0229,0,0,0-.827-.3076,1.1929,1.1929,0,0,0-.786.2393.8166.8166,0,0,0-.28.6563h-1.976a1.9806,1.9806,0,0,1,.397-1.1895,2.5955,2.5955,0,0,1,1.121-.8545,4.0455,4.0455,0,0,1,1.627-.3144,3.2045,3.2045,0,0,1,2.167.69,2.3872,2.3872,0,0,1,.806,1.9277v3.206a3.5479,3.5479,0,0,0,.294,1.5928V95Zm-1.634-1.374a1.7263,1.7263,0,0,0,.807-.1914,1.298,1.298,0,0,0,.547-.5264V91.6367h-.738q-1.4835,0-1.579,1.0254l-.007.1162a.7883.7883,0,0,0,.26.6084A1.0077,1.0077,0,0,0,268.479,93.626Zm7.541-1.5928-.711.7109V95h-1.976V84.5h1.976v5.8174l.382-.4922,1.894-2.2217h2.372l-2.673,3.083L280.189,95H277.92Zm8.059,3.1035a3.6407,3.6407,0,0,1-2.652-.998,3.5546,3.5546,0,0,1-1.019-2.6592v-.1914a4.4479,4.4479,0,0,1,.431-1.9893,3.1421,3.1421,0,0,1,1.217-1.3535,3.421,3.421,0,0,1,1.804-.4785,3.0594,3.0594,0,0,1,2.386.957,3.8806,3.8806,0,0,1,.875,2.7139v.8066h-4.71a1.8435,1.8435,0,0,0,.574,1.1621,1.7606,1.7606,0,0,0,1.224.4375,2.1317,2.1317,0,0,0,1.784-.8271l.971,1.0869a2.9885,2.9885,0,0,1-1.203.9844A3.9832,3.9832,0,0,1,284.079,95.1367Zm-.225-6.07a1.2513,1.2513,0,0,0-.958.3965,2.0643,2.0643,0,0,0-.464,1.1348h2.748V90.44a1.4464,1.4464,0,0,0-.356-1.0117A1.2691,1.2691,0,0,0,283.854,89.0664ZM29.6113,103.6035l.0615.8272a2.5993,2.5993,0,0,1,2.126-.9639,1.9728,1.9728,0,0,1,1.9619,1.1279,2.54,2.54,0,0,1,2.2217-1.1279,2.2006,2.2006,0,0,1,1.791.7041,3.2057,3.2057,0,0,1,.5879,2.1055V111H36.3789v-4.7168a1.3934,1.3934,0,0,0-.2461-.916,1.083,1.083,0,0,0-.8682-.294,1.2331,1.2331,0,0,0-1.23.8477L34.041,111H32.0654v-4.71a1.3912,1.3912,0,0,0-.2529-.93,1.1009,1.1009,0,0,0-.8613-.2872,1.28,1.28,0,0,0-1.2168.6973V111H27.7588v-7.3965ZM43.29,111.1367a3.643,3.643,0,0,1-2.6523-.998,3.5543,3.5543,0,0,1-1.0186-2.6592v-.1914a4.4467,4.4467,0,0,1,.4307-1.9893,3.1418,3.1418,0,0,1,1.2168-1.3535,3.4238,3.4238,0,0,1,1.8047-.4785,3.0588,3.0588,0,0,1,2.3857.957,3.8788,3.8788,0,0,1,.875,2.7139v.8066h-4.71a1.8426,1.8426,0,0,0,.5742,1.1621,1.7585,1.7585,0,0,0,1.2236.4375,2.1325,2.1325,0,0,0,1.7842-.8271l.9707,1.0869a2.9916,2.9916,0,0,1-1.2031.9844A3.9807,3.9807,0,0,1,43.29,111.1367Zm-.2255-6.07a1.248,1.248,0,0,0-.9571.3965,2.0632,2.0632,0,0,0-.4648,1.1348h2.748V106.44a1.4475,1.4475,0,0,0-.3554-1.0117A1.27,1.27,0,0,0,43.0645,105.0664Zm10.65,3.5205,1.3741-4.9834h2.0644L54.6582,111H52.7715l-2.4951-7.3965h2.0644Zm7.6221,2.55a3.643,3.643,0,0,1-2.6523-.998,3.554,3.554,0,0,1-1.0186-2.6592v-.1914a4.4467,4.4467,0,0,1,.4307-1.9893,3.1418,3.1418,0,0,1,1.2168-1.3535,3.4238,3.4238,0,0,1,1.8047-.4785,3.0589,3.0589,0,0,1,2.3857.957,3.8793,3.8793,0,0,1,.875,2.7139v.8066h-4.71a1.8427,1.8427,0,0,0,.5743,1.1621,1.7583,1.7583,0,0,0,1.2236.4375,2.1325,2.1325,0,0,0,1.7842-.8271l.9707,1.0869a2.9916,2.9916,0,0,1-1.2031.9844A3.981,3.981,0,0,1,61.3369,111.1367Zm-.2256-6.07a1.248,1.248,0,0,0-.957.3965,2.0632,2.0632,0,0,0-.4648,1.1348h2.748V106.44a1.4471,1.4471,0,0,0-.3555-1.0117A1.27,1.27,0,0,0,61.1113,105.0664Zm8.5518.39a5.3609,5.3609,0,0,0-.711-.0547,1.447,1.447,0,0,0-1.47.7588V111H65.5068v-7.3965H67.373l.0547.8819a1.8306,1.8306,0,0,1,1.6475-1.0186,2.0683,2.0683,0,0,1,.6152.0889Zm3.8418,2.748,1.3672-4.6006h2.1191l-2.9736,8.5449-.1641.39a2.2546,2.2546,0,0,1-2.1875,1.4492,3.108,3.108,0,0,1-.875-.13V112.36l.3008.0068a1.606,1.606,0,0,0,.834-.1709,1.1155,1.1155,0,0,0,.4375-.5674l.2324-.6084-2.5908-7.417h2.126Zm9.68-3.7939a2.4655,2.4655,0,0,1,1.9756-.9434q2.4062,0,2.44,2.7959V111H85.625v-4.6826a1.36,1.36,0,0,0-.2734-.9365,1.1646,1.1646,0,0,0-.9092-.3077,1.3444,1.3444,0,0,0-1.2578.67V111H81.209V100.5h1.9756ZM93.377,111a2.1918,2.1918,0,0,1-.1983-.6631,2.39,2.39,0,0,1-1.8662.8,2.6389,2.6389,0,0,1-1.8047-.6289,2.027,2.027,0,0,1-.7109-1.5859,2.0932,2.0932,0,0,1,.8681-1.8047,4.3179,4.3179,0,0,1,2.5225-.6358h.9092v-.4238a1.2089,1.2089,0,0,0-.2666-.82,1.0245,1.0245,0,0,0-.8272-.3076,1.1909,1.1909,0,0,0-.7861.2392.8174.8174,0,0,0-.28.6563H88.9609a1.9848,1.9848,0,0,1,.3965-1.1895,2.5978,2.5978,0,0,1,1.1211-.8545,4.0478,4.0478,0,0,1,1.627-.3144,3.204,3.204,0,0,1,2.167.69,2.3886,2.3886,0,0,1,.8066,1.9278v3.206a3.537,3.537,0,0,0,.2939,1.5928V111Zm-1.6338-1.374a1.7261,1.7261,0,0,0,.8066-.1914,1.3,1.3,0,0,0,.5469-.5264v-1.2715h-.7383q-1.4833,0-1.5791,1.0254l-.0068.1162a.7907.7907,0,0,0,.26.6084A1.0092,1.0092,0,0,0,91.7432,109.626Zm11.5117-2.2559a4.4373,4.4373,0,0,1-.7793,2.7412,2.4815,2.4815,0,0,1-2.0918,1.0254,2.304,2.304,0,0,1-1.8115-.7793v3.4864H96.5967v-10.24h1.832l.0684.7246a2.3218,2.3218,0,0,1,1.873-.8613,2.5045,2.5045,0,0,1,2.126,1.0117,4.556,4.556,0,0,1,.7588,2.7891Zm-1.9756-.1435a2.89,2.89,0,0,0-.3691-1.5928,1.1833,1.1833,0,0,0-1.06-.5606,1.2936,1.2936,0,0,0-1.2783.711v3.0283a1.3156,1.3156,0,0,0,1.292.7314Q101.2793,109.5439,101.2793,107.2266Zm9.8643.1435a4.4374,4.4374,0,0,1-.7793,2.7412,2.4815,2.4815,0,0,1-2.0918,1.0254,2.3043,2.3043,0,0,1-1.8116-.7793v3.4864h-1.9755v-10.24h1.832l.0683.7246a2.3221,2.3221,0,0,1,1.8731-.8613,2.5047,2.5047,0,0,1,2.126,1.0117,4.5567,4.5567,0,0,1,.7588,2.7891Zm-1.9756-.1435a2.8893,2.8893,0,0,0-.3692-1.5928,1.183,1.183,0,0,0-1.0595-.5606,1.2938,1.2938,0,0,0-1.2784.711v3.0283a1.3157,1.3157,0,0,0,1.292.7314Q109.168,109.5439,109.168,107.2266Zm5.8857.9775,1.3672-4.6006H118.54l-2.9736,8.5449-.1641.39a2.2546,2.2546,0,0,1-2.1875,1.4492,3.1085,3.1085,0,0,1-.875-.13V112.36l.3008.0068a1.606,1.606,0,0,0,.834-.1709,1.115,1.115,0,0,0,.4375-.5674l.2324-.6084-2.5908-7.417h2.126Zm3.22,1.8252a1,1,0,0,1,.3145-.7656,1.14,1.14,0,0,1,.8-.294,1.1246,1.1246,0,0,1,.8.294,1.0727,1.0727,0,0,1,.0068,1.5244,1.2671,1.2671,0,0,1-1.6064,0A.992.992,0,0,1,118.2734,110.0293Z"/></g><g id="plants:_7" data-name="plants: 7"><path id="path5_fill" data-name="path5 fill" class="cls-6" d="M150.417,33.37a4.4371,4.4371,0,0,1-.7793,2.7412,2.4814,2.4814,0,0,1-2.0918,1.0254,2.3041,2.3041,0,0,1-1.8115-.7793v3.4864h-1.9756v-10.24h1.832l.0684.7246a2.3219,2.3219,0,0,1,1.8731-.8613,2.5045,2.5045,0,0,1,2.126,1.0117,4.5561,4.5561,0,0,1,.7588,2.7891Zm-1.9756-.1436a2.89,2.89,0,0,0-.3691-1.5928,1.183,1.183,0,0,0-1.06-.5606,1.2937,1.2937,0,0,0-1.2783.7109v3.0283a1.3156,1.3156,0,0,0,1.292.7314Q148.4414,35.5439,148.4414,33.2266ZM153.7324,37H151.75V26.5h1.9824Zm5.92,0a2.1947,2.1947,0,0,1-.1982-.6631,2.39,2.39,0,0,1-1.8662.8,2.6389,2.6389,0,0,1-1.8047-.6289,2.0267,2.0267,0,0,1-.7109-1.5859,2.0932,2.0932,0,0,1,.8681-1.8047,4.3177,4.3177,0,0,1,2.5225-.6357h.9092v-.4238a1.2089,1.2089,0,0,0-.2666-.82,1.0246,1.0246,0,0,0-.8272-.3076,1.1909,1.1909,0,0,0-.7861.2393.8171.8171,0,0,0-.28.6563h-1.9756a1.9847,1.9847,0,0,1,.3965-1.1895,2.597,2.597,0,0,1,1.1211-.8545,4.0472,4.0472,0,0,1,1.627-.3144,3.2043,3.2043,0,0,1,2.167.69,2.3885,2.3885,0,0,1,.8066,1.9277v3.206a3.5356,3.5356,0,0,0,.2939,1.5928V37Zm-1.6337-1.374a1.7262,1.7262,0,0,0,.8066-.1914,1.3,1.3,0,0,0,.5469-.5264V33.6367h-.7383q-1.4833,0-1.5791,1.0254l-.0068.1162a.7908.7908,0,0,0,.26.6084A1.0092,1.0092,0,0,0,158.0186,35.626Zm6.6718-6.0225.0616.8545a2.5823,2.5823,0,0,1,2.1259-.9912,2.146,2.146,0,0,1,1.75.69,3.2213,3.2213,0,0,1,.5879,2.0644V37H167.24V32.27a1.2685,1.2685,0,0,0-.2734-.9092,1.2149,1.2149,0,0,0-.9092-.2871,1.3591,1.3591,0,0,0-1.251.7109V37h-1.9755V29.6035Zm8.3946-1.8184v1.8184H174.35v1.4492H173.085v3.6914a.8815.8815,0,0,0,.1572.5879.79.79,0,0,0,.6016.1778,3.15,3.15,0,0,0,.581-.0479V36.959a4.0666,4.0666,0,0,1-1.1963.1777,1.8862,1.8862,0,0,1-2.1191-2.0986V31.0527h-1.08V29.6035h1.08V27.7852Zm6.3711,7.1709a.6287.6287,0,0,0-.3623-.5674,3.9341,3.9341,0,0,0-1.1485-.376q-2.6387-.5537-2.6387-2.2422A2.026,2.026,0,0,1,176.12,30.13a3.298,3.298,0,0,1,2.14-.6631,3.5321,3.5321,0,0,1,2.249.6631,2.0867,2.0867,0,0,1,.8476,1.7227h-1.9755a.9444.9444,0,0,0-.2735-.6973,1.1483,1.1483,0,0,0-.8545-.28,1.1822,1.1822,0,0,0-.7724.2256.7121.7121,0,0,0-.2735.5742.6182.6182,0,0,0,.3076.5332,3.3614,3.3614,0,0,0,1.0528.3486,8.3185,8.3185,0,0,1,1.2441.3281,2.0441,2.0441,0,0,1,1.5655,1.9892,1.9378,1.9378,0,0,1-.8682,1.6406,3.76,3.76,0,0,1-2.2422.6221,3.9711,3.9711,0,0,1-1.6543-.3281,2.8112,2.8112,0,0,1-1.1279-.9092,2.1272,2.1272,0,0,1-.41-1.251h1.8731a1.0316,1.0316,0,0,0,.39.8067,1.5459,1.5459,0,0,0,.9707.28,1.4314,1.4314,0,0,0,.8545-.212A.6763.6763,0,0,0,179.4561,34.9561Zm3.2949,1.0732a1,1,0,0,1,.3144-.7656,1.14,1.14,0,0,1,.8-.294,1.1246,1.1246,0,0,1,.8.294,1.0728,1.0728,0,0,1,.0069,1.5244,1.2672,1.2672,0,0,1-1.6065,0A.9919.9919,0,0,1,182.751,36.0293Zm0-5.5986a1,1,0,0,1,.3144-.7656,1.14,1.14,0,0,1,.8-.294,1.1247,1.1247,0,0,1,.8.294,1.0728,1.0728,0,0,1,.0069,1.5244,1.2672,1.2672,0,0,1-1.6065,0A.9919.9919,0,0,1,182.751,30.4307Zm14.0273-2.2764L192.93,37h-2.085L194.7,28.6465H189.751v-1.6h7.0273Z"/></g><g id="xp:_3200" data-name="xp: 3200"><path id="path6_fill" data-name="path6 fill" class="cls-6" d="M146.5752,54.8115l1.2441-2.208h2.1123l-2.1055,3.623L150.0205,60h-2.1191l-1.3193-2.3242L145.27,60h-2.126l2.1943-3.7734-2.0986-3.623h2.1191ZM157.54,56.37a4.4367,4.4367,0,0,1-.7793,2.7412,2.4812,2.4812,0,0,1-2.0918,1.0254,2.304,2.304,0,0,1-1.8115-.7793v3.4864h-1.9756v-10.24h1.832l.0684.7246a2.3219,2.3219,0,0,1,1.8731-.8613,2.5044,2.5044,0,0,1,2.1259,1.0117,4.5558,4.5558,0,0,1,.7588,2.7891Zm-1.9755-.1436a2.8894,2.8894,0,0,0-.3692-1.5928,1.183,1.183,0,0,0-1.06-.5606,1.2937,1.2937,0,0,0-1.2783.7109v3.0283a1.3157,1.3157,0,0,0,1.292.7314Q155.5645,58.5439,155.5645,56.2266Zm3.3017,2.8027a1,1,0,0,1,.3145-.7656,1.14,1.14,0,0,1,.8-.294,1.1249,1.1249,0,0,1,.8.294,1.0727,1.0727,0,0,1,.0068,1.5244,1.2671,1.2671,0,0,1-1.6064,0A.9917.9917,0,0,1,158.8662,59.0293Zm0-5.5986a1,1,0,0,1,.3145-.7656,1.14,1.14,0,0,1,.8-.294,1.1251,1.1251,0,0,1,.8.294,1.0727,1.0727,0,0,1,.0068,1.5244,1.267,1.267,0,0,1-1.6064,0A.9916.9916,0,0,1,158.8662,53.4307Zm9.2695.7178h1.0528a1.4832,1.4832,0,0,0,1.1142-.376,1.3774,1.3774,0,0,0,.3623-.9981,1.2118,1.2118,0,0,0-.3623-.9365,1.3781,1.3781,0,0,0-.9843-.335,1.4475,1.4475,0,0,0-.95.3144.985.985,0,0,0-.3828.8066H166.01a2.4278,2.4278,0,0,1,.417-1.3945,2.8192,2.8192,0,0,1,1.1757-.9707,3.9475,3.9475,0,0,1,1.668-.3486,3.71,3.71,0,0,1,2.4746.7588,2.5672,2.5672,0,0,1,.8955,2.0781,2.0943,2.0943,0,0,1-.417,1.2578,2.7088,2.7088,0,0,1-1.0937.8818,2.3311,2.3311,0,0,1,1.668,2.3242,2.616,2.616,0,0,1-.9708,2.126,3.875,3.875,0,0,1-2.5566.8,3.7011,3.7011,0,0,1-2.44-.7861,2.5713,2.5713,0,0,1-.9434-2.0781h1.9756a1.1484,1.1484,0,0,0,.417.916,1.76,1.76,0,0,0,2.14-.0137,1.2913,1.2913,0,0,0,.4034-.9912q0-1.49-1.6407-1.49h-1.0459ZM180.9873,60H174.165V58.6465l3.22-3.4317a7.762,7.762,0,0,0,.9775-1.2646,2.0163,2.0163,0,0,0,.3213-1.0254,1.5071,1.5071,0,0,0-.335-1.0391,1.2036,1.2036,0,0,0-.957-.3828,1.31,1.31,0,0,0-1.06.4648,1.8248,1.8248,0,0,0-.3828,1.21h-1.9824a3.2832,3.2832,0,0,1,.4307-1.6611,3.06,3.06,0,0,1,1.23-1.1758,3.706,3.706,0,0,1,1.7979-.4307,3.5176,3.5176,0,0,1,2.3857.7383,2.6067,2.6067,0,0,1,.8545,2.085,3.3466,3.3466,0,0,1-.3828,1.5039,8.3566,8.3566,0,0,1-1.3125,1.7842l-2.2627,2.3857h4.2793Zm7.916-4.1152a5.042,5.042,0,0,1-.8545,3.1582,3.4148,3.4148,0,0,1-4.99.0205,4.8943,4.8943,0,0,1-.8818-3.0762v-1.832a4.99,4.99,0,0,1,.8613-3.165,3.4216,3.4216,0,0,1,4.9834-.0068,4.8645,4.8645,0,0,1,.8818,3.0693Zm-1.9756-2.01a3.586,3.586,0,0,0-.3418-1.7979,1.2584,1.2584,0,0,0-2.0849-.0273,3.4137,3.4137,0,0,0-.3487,1.6748v2.42a3.8749,3.8749,0,0,0,.3282,1.8116,1.1374,1.1374,0,0,0,1.0664.5878,1.11,1.11,0,0,0,1.0459-.5673,3.728,3.728,0,0,0,.3349-1.7364Zm10.0147,2.01a5.042,5.042,0,0,1-.8545,3.1582,3.4148,3.4148,0,0,1-4.99.0205,4.8943,4.8943,0,0,1-.8819-3.0762v-1.832a4.99,4.99,0,0,1,.8613-3.165,3.4216,3.4216,0,0,1,4.9834-.0068,4.8638,4.8638,0,0,1,.8819,3.0693Zm-1.9756-2.01a3.586,3.586,0,0,0-.3418-1.7979,1.2585,1.2585,0,0,0-2.085-.0273,3.415,3.415,0,0,0-.3486,1.6748v2.42a3.8763,3.8763,0,0,0,.3281,1.8116,1.1375,1.1375,0,0,0,1.0664.5878,1.11,1.11,0,0,0,1.0459-.5673,3.7278,3.7278,0,0,0,.335-1.7364Z"/></g></g></g></g></svg>