<svg width="320" height="568" viewBox="0 0 320 568" version="1.1" xmlns="http://www.w3.org/2000/svg" xmlns:xlink="http://www.w3.org/1999/xlink">
<title>Untitled</title>
<desc>Created using Figma</desc>
<g id="Canvas" transform="translate(160 285)">
<rect x="-160" y="-285" width="320" height="568" fill="#E5E5E5"/>
<clipPath id="clip-0" clip-rule="evenodd">
<path d="M -160 -285L 160 -285L 160 283L -160 283L -160 -285Z" fill="#FFFFFF"/>
</clipPath>
<g id="iPhone SE" clip-path="url(#clip-0)">
<path d="M -160 -285L 160 -285L 160 283L -160 283L -160 -285Z" fill="#FFFFFF"/>
<g id="Ellipse">
<use xlink:href="#path0_fill" transform="translate(-125 -80)" fill="#C4C4C4"/>
</g>
<g id="Ellipse">
<use xlink:href="#path0_fill" transform="translate(-35 -80)" fill="#C4C4C4"/>
</g>
<g id="Ellipse">
<use xlink:href="#path0_fill" transform="translate(55 -80)" fill="#C4C4C4"/>
</g>
<g id="Ellipse">
<use xlink:href="#path0_fill" transform="translate(-125 10)" fill="#C4C4C4"/>
</g>
<g id="Ellipse">
<use xlink:href="#path0_fill" transform="translate(-125 100)" fill="#C4C4C4"/>
</g>
<g id="Ellipse" filter="url(#filter0_f)">
<use xlink:href="#path1_fill" transform="translate(-25 110)" fill="#E0E0E0"/>
</g>
<g id="Ellipse">
<use xlink:href="#path0_fill" transform="translate(-35 10)" fill="#C4C4C4"/>
</g>
<g id="Ellipse">
<use xlink:href="#path0_fill" transform="translate(55 10)" fill="#C4C4C4"/>
</g>
<g id="Rectangle">
<use xlink:href="#path2_fill" transform="translate(-160 -255)" fill="#C4C4C4"/>
</g>
<g id="Ellipse">
<use xlink:href="#path0_fill" transform="translate(-125 -242)" fill="#E0E0E0"/>
</g>
<g id="greenuser13">
<use xlink:href="#path3_fill" transform="translate(-17 -237)" fill="#F2F2F2"/>
</g>
<g id="plants: 7">
<use xlink:href="#path4_fill" transform="translate(-17 -215)" fill="#F2F2F2"/>
</g>
<g id="xp: 3200">
<use xlink:href="#path5_fill" transform="translate(-17 -192)" fill="#F2F2F2"/>
</g>
<g id="Rectangle 2">
<use xlink:href="#path6_fill" transform="translate(-160 -285)" fill="#828282"/>
</g>
<g id="Rectangle 2.1">
<use xlink:href="#path6_fill" transform="translate(-160 253)" fill="#828282"/>
</g>
<g id="o">
<use xlink:href="#path7_fill" transform="translate(-120 256)" fill="#F2F2F2"/>
</g>
<g id="&#60;">
<use xlink:href="#path8_fill" transform="translate(-133 -282)" fill="#F2F2F2"/>
</g>
<g id="o">
<use xlink:href="#path7_fill" transform="translate(-3 256)" fill="#F2F2F2"/>
</g>
<g id="o">
<use xlink:href="#path7_fill" transform="translate(114 256)" fill="#F2F2F2"/>
</g>
<g id="Ellipse 2">
<use xlink:href="#path9_fill" transform="translate(-74 -80)" fill="#828282"/>
</g>
<g id="Ellipse 2.3">
<use xlink:href="#path9_fill" transform="translate(-74 10)" fill="#828282"/>
</g>
<g id="Ellipse 2.6">
<use xlink:href="#path9_fill" transform="translate(-74 100)" fill="#828282"/>
</g>
<g id="Ellipse 2.4">
<use xlink:href="#path9_fill" transform="translate(18 13)" fill="#828282"/>
</g>
<g id="Ellipse 2.5">
<use xlink:href="#path9_fill" transform="translate(102 13)" fill="#828282"/>
</g>
<g id="Ellipse 2.1">
<use xlink:href="#path9_fill" transform="translate(18 -80)" fill="#828282"/>
</g>
<g id="Ellipse 2.2">
<use xlink:href="#path9_fill" transform="translate(102 -80)" fill="#828282"/>
</g>
<g id="+">
<use xlink:href="#path10_fill" transform="translate(-8 117)" fill="#BDBDBD"/>
</g>
</g>
</g>
<defs>
<filter id="filter0_f" filterUnits="userSpaceOnUse" x="-49" y="86" width="98" height="98" color-interpolation-filters="sRGB">
<feFlood flood-opacity="0" result="BackgroundImageFix"/>
<feBlend mode="normal" in="SourceGraphic" in2="BackgroundImageFix" result="shape"/>
<feGaussianBlur stdDeviation="12" result="effect1_foregroundBlur"/>
</filter>
<path id="path0_fill" d="M 70 35C 70 54.33 54.33 70 35 70C 15.67 70 0 54.33 0 35C 0 15.67 15.67 0 35 0C 54.33 0 70 15.67 70 35Z"/>
<path id="path1_fill" d="M 50 25C 50 38.8071 38.8071 50 25 50C 11.1929 50 0 38.8071 0 25C 0 11.1929 11.1929 0 25 0C 38.8071 0 50 11.1929 50 25Z"/>
<path id="path2_fill" d="M 0 0L 320 0L 320 145L 0 145L 0 0Z"/>
<path id="path3_fill" d="M 0.47168 9.24707C 0.47168 8.1123 0.74056 7.19857 1.27832 6.50586C 1.82064 5.81315 2.5498 5.4668 3.46582 5.4668C 4.27702 5.4668 4.9082 5.74479 5.35938 6.30078L 5.44141 5.60352L 7.23242 5.60352L 7.23242 12.7539C 7.23242 13.401 7.08431 13.9639 6.78809 14.4424C 6.49642 14.9209 6.08398 15.2855 5.55078 15.5361C 5.01758 15.7868 4.39323 15.9121 3.67773 15.9121C 3.13542 15.9121 2.60677 15.8027 2.0918 15.584C 1.57682 15.3698 1.18717 15.0918 0.922852 14.75L 1.79785 13.5469C 2.29004 14.0983 2.88704 14.374 3.58887 14.374C 4.11296 14.374 4.52083 14.2327 4.8125 13.9502C 5.10417 13.6722 5.25 13.2757 5.25 12.7607L 5.25 12.3643C 4.79427 12.8792 4.19499 13.1367 3.45215 13.1367C 2.56348 13.1367 1.84342 12.7904 1.29199 12.0977C 0.745117 11.4004 0.47168 10.4775 0.47168 9.3291L 0.47168 9.24707ZM 2.44727 9.39062C 2.44727 10.0605 2.58171 10.5869 2.85059 10.9697C 3.11947 11.348 3.48861 11.5371 3.95801 11.5371C 4.55957 11.5371 4.99023 11.3115 5.25 10.8604L 5.25 7.75C 4.98568 7.29883 4.55957 7.07324 3.97168 7.07324C 3.49772 7.07324 3.12402 7.26693 2.85059 7.6543C 2.58171 8.04167 2.44727 8.62044 2.44727 9.39062ZM 12.9131 7.45605C 12.6442 7.4196 12.4072 7.40137 12.2021 7.40137C 11.4548 7.40137 10.9648 7.6543 10.7324 8.16016L 10.7324 13L 8.75684 13L 8.75684 5.60352L 10.623 5.60352L 10.6777 6.48535C 11.0742 5.80631 11.6234 5.4668 12.3252 5.4668C 12.5439 5.4668 12.749 5.49642 12.9404 5.55566L 12.9131 7.45605ZM 17.1377 13.1367C 16.0531 13.1367 15.1689 12.804 14.4854 12.1387C 13.8063 11.4733 13.4668 10.5869 13.4668 9.47949L 13.4668 9.28809C 13.4668 8.54525 13.6104 7.88216 13.8975 7.29883C 14.1846 6.71094 14.5902 6.25977 15.1143 5.94531C 15.6429 5.6263 16.2445 5.4668 16.9189 5.4668C 17.9307 5.4668 18.7259 5.78581 19.3047 6.42383C 19.888 7.06185 20.1797 7.96647 20.1797 9.1377L 20.1797 9.94434L 15.4697 9.94434C 15.5335 10.4274 15.7249 10.8148 16.0439 11.1064C 16.3675 11.3981 16.7754 11.5439 17.2676 11.5439C 18.0286 11.5439 18.6234 11.2682 19.0518 10.7168L 20.0225 11.8037C 19.7262 12.223 19.3252 12.5511 18.8193 12.7881C 18.3135 13.0205 17.7529 13.1367 17.1377 13.1367ZM 16.9121 7.06641C 16.5202 7.06641 16.2012 7.19857 15.9551 7.46289C 15.7135 7.72721 15.5586 8.10547 15.4902 8.59766L 18.2383 8.59766L 18.2383 8.44043C 18.2292 8.00293 18.1107 7.66569 17.8828 7.42871C 17.6549 7.18717 17.3314 7.06641 16.9121 7.06641ZM 24.7119 13.1367C 23.6273 13.1367 22.7432 12.804 22.0596 12.1387C 21.3805 11.4733 21.041 10.5869 21.041 9.47949L 21.041 9.28809C 21.041 8.54525 21.1846 7.88216 21.4717 7.29883C 21.7588 6.71094 22.1644 6.25977 22.6885 5.94531C 23.2171 5.6263 23.8187 5.4668 24.4932 5.4668C 25.5049 5.4668 26.3001 5.78581 26.8789 6.42383C 27.4622 7.06185 27.7539 7.96647 27.7539 9.1377L 27.7539 9.94434L 23.0439 9.94434C 23.1077 10.4274 23.2992 10.8148 23.6182 11.1064C 23.9417 11.3981 24.3496 11.5439 24.8418 11.5439C 25.6029 11.5439 26.1976 11.2682 26.626 10.7168L 27.5967 11.8037C 27.3005 12.223 26.8994 12.5511 26.3936 12.7881C 25.8877 13.0205 25.3271 13.1367 24.7119 13.1367ZM 24.4863 7.06641C 24.0944 7.06641 23.7754 7.19857 23.5293 7.46289C 23.2878 7.72721 23.1328 8.10547 23.0645 8.59766L 25.8125 8.59766L 25.8125 8.44043C 25.8034 8.00293 25.6849 7.66569 25.457 7.42871C 25.2292 7.18717 24.9056 7.06641 24.4863 7.06641ZM 30.7002 5.60352L 30.7617 6.45801C 31.2904 5.7972 31.999 5.4668 32.8877 5.4668C 33.6715 5.4668 34.2549 5.69694 34.6377 6.15723C 35.0205 6.61751 35.2165 7.30566 35.2256 8.22168L 35.2256 13L 33.25 13L 33.25 8.26953C 33.25 7.85026 33.1589 7.5472 32.9766 7.36035C 32.7943 7.16895 32.4912 7.07324 32.0674 7.07324C 31.5114 7.07324 31.0944 7.31022 30.8164 7.78418L 30.8164 13L 28.8408 13L 28.8408 5.60352L 30.7002 5.60352ZM 41.1592 12.248C 40.6715 12.8405 39.9971 13.1367 39.1357 13.1367C 38.3428 13.1367 37.7367 12.9089 37.3174 12.4531C 36.9027 11.9974 36.6908 11.3298 36.6816 10.4502L 36.6816 5.60352L 38.6572 5.60352L 38.6572 10.3818C 38.6572 11.152 39.0081 11.5371 39.71 11.5371C 40.3799 11.5371 40.8402 11.3047 41.0908 10.8398L 41.0908 5.60352L 43.0732 5.60352L 43.0732 13L 41.2139 13L 41.1592 12.248ZM 48.5693 10.9561C 48.5693 10.7145 48.4486 10.5254 48.207 10.3887C 47.9701 10.2474 47.5872 10.1221 47.0586 10.0127C 45.2995 9.64355 44.4199 8.89616 44.4199 7.77051C 44.4199 7.11426 44.6911 6.56738 45.2334 6.12988C 45.7803 5.68783 46.4935 5.4668 47.373 5.4668C 48.3118 5.4668 49.0615 5.68783 49.6221 6.12988C 50.1872 6.57194 50.4697 7.14616 50.4697 7.85254L 48.4941 7.85254C 48.4941 7.56999 48.403 7.33757 48.2207 7.15527C 48.0384 6.96842 47.7536 6.875 47.3662 6.875C 47.0335 6.875 46.776 6.9502 46.5938 7.10059C 46.4115 7.25098 46.3203 7.44238 46.3203 7.6748C 46.3203 7.89355 46.4229 8.07129 46.6279 8.20801C 46.8376 8.34017 47.1885 8.45638 47.6807 8.55664C 48.1729 8.65234 48.5876 8.76172 48.9248 8.88477C 49.9684 9.26758 50.4902 9.93066 50.4902 10.874C 50.4902 11.5485 50.2008 12.0954 49.6221 12.5146C 49.0433 12.9294 48.2959 13.1367 47.3799 13.1367C 46.7601 13.1367 46.2087 13.0273 45.7256 12.8086C 45.2471 12.5853 44.8711 12.2822 44.5977 11.8994C 44.3242 11.512 44.1875 11.0951 44.1875 10.6484L 46.0605 10.6484C 46.0788 10.9993 46.2087 11.2682 46.4502 11.4551C 46.6917 11.6419 47.0153 11.7354 47.4209 11.7354C 47.7992 11.7354 48.084 11.6647 48.2754 11.5234C 48.4714 11.3776 48.5693 11.1885 48.5693 10.9561ZM 55.1729 13.1367C 54.0882 13.1367 53.2041 12.804 52.5205 12.1387C 51.8415 11.4733 51.502 10.5869 51.502 9.47949L 51.502 9.28809C 51.502 8.54525 51.6455 7.88216 51.9326 7.29883C 52.2197 6.71094 52.6253 6.25977 53.1494 5.94531C 53.6781 5.6263 54.2796 5.4668 54.9541 5.4668C 55.9658 5.4668 56.7611 5.78581 57.3398 6.42383C 57.9232 7.06185 58.2148 7.96647 58.2148 9.1377L 58.2148 9.94434L 53.5049 9.94434C 53.5687 10.4274 53.7601 10.8148 54.0791 11.1064C 54.4027 11.3981 54.8105 11.5439 55.3027 11.5439C 56.0638 11.5439 56.6585 11.2682 57.0869 10.7168L 58.0576 11.8037C 57.7614 12.223 57.3604 12.5511 56.8545 12.7881C 56.3486 13.0205 55.7881 13.1367 55.1729 13.1367ZM 54.9473 7.06641C 54.5553 7.06641 54.2363 7.19857 53.9902 7.46289C 53.7487 7.72721 53.5938 8.10547 53.5254 8.59766L 56.2734 8.59766L 56.2734 8.44043C 56.2643 8.00293 56.1458 7.66569 55.918 7.42871C 55.6901 7.18717 55.3665 7.06641 54.9473 7.06641ZM 63.499 7.45605C 63.2301 7.4196 62.9932 7.40137 62.7881 7.40137C 62.0407 7.40137 61.5508 7.6543 61.3184 8.16016L 61.3184 13L 59.3428 13L 59.3428 5.60352L 61.209 5.60352L 61.2637 6.48535C 61.6602 5.80631 62.2093 5.4668 62.9111 5.4668C 63.1299 5.4668 63.335 5.49642 63.5264 5.55566L 63.499 7.45605ZM 69.1729 13L 67.1973 13L 67.1973 5.38477L 64.8389 6.11621L 64.8389 4.50977L 68.9609 3.0332L 69.1729 3.0332L 69.1729 13ZM 74.4229 7.14844L 75.4756 7.14844C 75.9769 7.14844 76.3483 7.02311 76.5898 6.77246C 76.8314 6.52181 76.9521 6.18913 76.9521 5.77441C 76.9521 5.37337 76.8314 5.0612 76.5898 4.83789C 76.3529 4.61458 76.0247 4.50293 75.6055 4.50293C 75.2272 4.50293 74.9105 4.60775 74.6553 4.81738C 74.4001 5.02246 74.2725 5.29134 74.2725 5.62402L 72.2969 5.62402C 72.2969 5.10449 72.4359 4.63965 72.7139 4.22949C 72.9964 3.81478 73.3883 3.49121 73.8896 3.25879C 74.3955 3.02637 74.9515 2.91016 75.5576 2.91016C 76.6104 2.91016 77.4352 3.16309 78.0322 3.66895C 78.6292 4.17025 78.9277 4.86296 78.9277 5.74707C 78.9277 6.2028 78.7887 6.62207 78.5107 7.00488C 78.2327 7.3877 77.8682 7.68164 77.417 7.88672C 77.9775 8.08724 78.3945 8.38802 78.668 8.78906C 78.946 9.1901 79.085 9.66406 79.085 10.2109C 79.085 11.0951 78.7614 11.8037 78.1143 12.3369C 77.4717 12.8701 76.6195 13.1367 75.5576 13.1367C 74.5641 13.1367 73.7507 12.8747 73.1172 12.3506C 72.4883 11.8265 72.1738 11.1338 72.1738 10.2725L 74.1494 10.2725C 74.1494 10.6462 74.2884 10.9515 74.5664 11.1885C 74.849 11.4255 75.1953 11.5439 75.6055 11.5439C 76.0749 11.5439 76.4417 11.4209 76.7061 11.1748C 76.9749 10.9242 77.1094 10.5938 77.1094 10.1836C 77.1094 9.1901 76.5625 8.69336 75.4688 8.69336L 74.4229 8.69336L 74.4229 7.14844Z"/>
<path id="path4_fill" d="M 7.41699 9.37012C 7.41699 10.5094 7.15723 11.4232 6.6377 12.1113C 6.12272 12.7949 5.42546 13.1367 4.5459 13.1367C 3.7985 13.1367 3.19466 12.877 2.73438 12.3574L 2.73438 15.8438L 0.758789 15.8438L 0.758789 5.60352L 2.59082 5.60352L 2.65918 6.32812C 3.1377 5.75391 3.76204 5.4668 4.53223 5.4668C 5.44368 5.4668 6.15234 5.80404 6.6582 6.47852C 7.16406 7.15299 7.41699 8.08268 7.41699 9.26758L 7.41699 9.37012ZM 5.44141 9.22656C 5.44141 8.53841 5.31836 8.00749 5.07227 7.63379C 4.83073 7.26009 4.47754 7.07324 4.0127 7.07324C 3.3929 7.07324 2.9668 7.31022 2.73438 7.78418L 2.73438 10.8125C 2.97591 11.3001 3.40658 11.5439 4.02637 11.5439C 4.96973 11.5439 5.44141 10.7715 5.44141 9.22656ZM 10.7324 13L 8.75 13L 8.75 2.5L 10.7324 2.5L 10.7324 13ZM 16.6523 13C 16.5612 12.8223 16.4951 12.6012 16.4541 12.3369C 15.9756 12.8701 15.3535 13.1367 14.5879 13.1367C 13.8633 13.1367 13.2617 12.9271 12.7832 12.5078C 12.3092 12.0885 12.0723 11.5599 12.0723 10.9219C 12.0723 10.138 12.3617 9.53646 12.9404 9.11719C 13.5238 8.69792 14.3646 8.486 15.4629 8.48145L 16.3721 8.48145L 16.3721 8.05762C 16.3721 7.71582 16.2832 7.44238 16.1055 7.2373C 15.9323 7.03223 15.6566 6.92969 15.2783 6.92969C 14.9456 6.92969 14.6836 7.00944 14.4922 7.16895C 14.3053 7.32845 14.2119 7.5472 14.2119 7.8252L 12.2363 7.8252C 12.2363 7.39681 12.3685 7.00033 12.6328 6.63574C 12.8971 6.27116 13.2708 5.98633 13.7539 5.78125C 14.237 5.57161 14.7793 5.4668 15.3809 5.4668C 16.2923 5.4668 17.0146 5.69694 17.5479 6.15723C 18.0856 6.61296 18.3545 7.25553 18.3545 8.08496L 18.3545 11.291C 18.359 11.9928 18.457 12.5238 18.6484 12.8838L 18.6484 13L 16.6523 13ZM 15.0186 11.626C 15.3102 11.626 15.5791 11.5622 15.8252 11.4346C 16.0713 11.3024 16.2536 11.127 16.3721 10.9082L 16.3721 9.63672L 15.6338 9.63672C 14.6449 9.63672 14.1185 9.97852 14.0547 10.6621L 14.0479 10.7783C 14.0479 11.0244 14.1344 11.2272 14.3076 11.3867C 14.4808 11.5462 14.7178 11.626 15.0186 11.626ZM 21.6904 5.60352L 21.752 6.45801C 22.2806 5.7972 22.9893 5.4668 23.8779 5.4668C 24.6618 5.4668 25.2451 5.69694 25.6279 6.15723C 26.0107 6.61751 26.2067 7.30566 26.2158 8.22168L 26.2158 13L 24.2402 13L 24.2402 8.26953C 24.2402 7.85026 24.1491 7.5472 23.9668 7.36035C 23.7845 7.16895 23.4814 7.07324 23.0576 7.07324C 22.5016 7.07324 22.0846 7.31022 21.8066 7.78418L 21.8066 13L 19.8311 13L 19.8311 5.60352L 21.6904 5.60352ZM 30.085 3.78516L 30.085 5.60352L 31.3496 5.60352L 31.3496 7.05273L 30.085 7.05273L 30.085 10.7441C 30.085 11.0176 30.1374 11.2135 30.2422 11.332C 30.347 11.4505 30.5475 11.5098 30.8438 11.5098C 31.0625 11.5098 31.2562 11.4938 31.4248 11.4619L 31.4248 12.959C 31.0374 13.0775 30.6387 13.1367 30.2285 13.1367C 28.8431 13.1367 28.1367 12.4372 28.1094 11.0381L 28.1094 7.05273L 27.0293 7.05273L 27.0293 5.60352L 28.1094 5.60352L 28.1094 3.78516L 30.085 3.78516ZM 36.4561 10.9561C 36.4561 10.7145 36.3353 10.5254 36.0938 10.3887C 35.8568 10.2474 35.474 10.1221 34.9453 10.0127C 33.1862 9.64355 32.3066 8.89616 32.3066 7.77051C 32.3066 7.11426 32.5778 6.56738 33.1201 6.12988C 33.667 5.68783 34.3802 5.4668 35.2598 5.4668C 36.1986 5.4668 36.9482 5.68783 37.5088 6.12988C 38.0739 6.57194 38.3564 7.14616 38.3564 7.85254L 36.3809 7.85254C 36.3809 7.56999 36.2897 7.33757 36.1074 7.15527C 35.9251 6.96842 35.6403 6.875 35.2529 6.875C 34.9202 6.875 34.6628 6.9502 34.4805 7.10059C 34.2982 7.25098 34.207 7.44238 34.207 7.6748C 34.207 7.89355 34.3096 8.07129 34.5146 8.20801C 34.7243 8.34017 35.0752 8.45638 35.5674 8.55664C 36.0596 8.65234 36.4743 8.76172 36.8115 8.88477C 37.8551 9.26758 38.377 9.93066 38.377 10.874C 38.377 11.5485 38.0876 12.0954 37.5088 12.5146C 36.93 12.9294 36.1826 13.1367 35.2666 13.1367C 34.6468 13.1367 34.0954 13.0273 33.6123 12.8086C 33.1338 12.5853 32.7578 12.2822 32.4844 11.8994C 32.2109 11.512 32.0742 11.0951 32.0742 10.6484L 33.9473 10.6484C 33.9655 10.9993 34.0954 11.2682 34.3369 11.4551C 34.5785 11.6419 34.902 11.7354 35.3076 11.7354C 35.6859 11.7354 35.9707 11.6647 36.1621 11.5234C 36.3581 11.3776 36.4561 11.1885 36.4561 10.9561ZM 39.751 12.0293C 39.751 11.7148 39.8558 11.4596 40.0654 11.2637C 40.2796 11.0677 40.5462 10.9697 40.8652 10.9697C 41.1888 10.9697 41.4554 11.0677 41.665 11.2637C 41.8792 11.4596 41.9863 11.7148 41.9863 12.0293C 41.9863 12.3392 41.8815 12.5921 41.6719 12.7881C 41.4622 12.9795 41.1934 13.0752 40.8652 13.0752C 40.5417 13.0752 40.2751 12.9795 40.0654 12.7881C 39.8558 12.5921 39.751 12.3392 39.751 12.0293ZM 39.751 6.43066C 39.751 6.11621 39.8558 5.861 40.0654 5.66504C 40.2796 5.46908 40.5462 5.37109 40.8652 5.37109C 41.1888 5.37109 41.4554 5.46908 41.665 5.66504C 41.8792 5.861 41.9863 6.11621 41.9863 6.43066C 41.9863 6.74056 41.8815 6.99349 41.6719 7.18945C 41.4622 7.38086 41.1934 7.47656 40.8652 7.47656C 40.5417 7.47656 40.2751 7.38086 40.0654 7.18945C 39.8558 6.99349 39.751 6.74056 39.751 6.43066ZM 53.7783 4.1543L 49.9297 13L 47.8447 13L 51.7002 4.64648L 46.751 4.64648L 46.751 3.04688L 53.7783 3.04688L 53.7783 4.1543Z"/>
<path id="path5_fill" d="M 3.5752 7.81152L 4.81934 5.60352L 6.93164 5.60352L 4.82617 9.22656L 7.02051 13L 4.90137 13L 3.58203 10.6758L 2.26953 13L 0.143555 13L 2.33789 9.22656L 0.239258 5.60352L 2.3584 5.60352L 3.5752 7.81152ZM 14.54 9.37012C 14.54 10.5094 14.2803 11.4232 13.7607 12.1113C 13.2458 12.7949 12.5485 13.1367 11.6689 13.1367C 10.9215 13.1367 10.3177 12.877 9.85742 12.3574L 9.85742 15.8438L 7.88184 15.8438L 7.88184 5.60352L 9.71387 5.60352L 9.78223 6.32812C 10.2607 5.75391 10.8851 5.4668 11.6553 5.4668C 12.5667 5.4668 13.2754 5.80404 13.7812 6.47852C 14.2871 7.15299 14.54 8.08268 14.54 9.26758L 14.54 9.37012ZM 12.5645 9.22656C 12.5645 8.53841 12.4414 8.00749 12.1953 7.63379C 11.9538 7.26009 11.6006 7.07324 11.1357 7.07324C 10.516 7.07324 10.0898 7.31022 9.85742 7.78418L 9.85742 10.8125C 10.099 11.3001 10.5296 11.5439 11.1494 11.5439C 12.0928 11.5439 12.5645 10.7715 12.5645 9.22656ZM 15.8662 12.0293C 15.8662 11.7148 15.971 11.4596 16.1807 11.2637C 16.3949 11.0677 16.6615 10.9697 16.9805 10.9697C 17.304 10.9697 17.5706 11.0677 17.7803 11.2637C 17.9945 11.4596 18.1016 11.7148 18.1016 12.0293C 18.1016 12.3392 17.9967 12.5921 17.7871 12.7881C 17.5775 12.9795 17.3086 13.0752 16.9805 13.0752C 16.6569 13.0752 16.3903 12.9795 16.1807 12.7881C 15.971 12.5921 15.8662 12.3392 15.8662 12.0293ZM 15.8662 6.43066C 15.8662 6.11621 15.971 5.861 16.1807 5.66504C 16.3949 5.46908 16.6615 5.37109 16.9805 5.37109C 17.304 5.37109 17.5706 5.46908 17.7803 5.66504C 17.9945 5.861 18.1016 6.11621 18.1016 6.43066C 18.1016 6.74056 17.9967 6.99349 17.7871 7.18945C 17.5775 7.38086 17.3086 7.47656 16.9805 7.47656C 16.6569 7.47656 16.3903 7.38086 16.1807 7.18945C 15.971 6.99349 15.8662 6.74056 15.8662 6.43066ZM 25.1357 7.14844L 26.1885 7.14844C 26.6898 7.14844 27.0612 7.02311 27.3027 6.77246C 27.5443 6.52181 27.665 6.18913 27.665 5.77441C 27.665 5.37337 27.5443 5.0612 27.3027 4.83789C 27.0658 4.61458 26.7376 4.50293 26.3184 4.50293C 25.9401 4.50293 25.6234 4.60775 25.3682 4.81738C 25.113 5.02246 24.9854 5.29134 24.9854 5.62402L 23.0098 5.62402C 23.0098 5.10449 23.1488 4.63965 23.4268 4.22949C 23.7093 3.81478 24.1012 3.49121 24.6025 3.25879C 25.1084 3.02637 25.6644 2.91016 26.2705 2.91016C 27.3232 2.91016 28.1481 3.16309 28.7451 3.66895C 29.3421 4.17025 29.6406 4.86296 29.6406 5.74707C 29.6406 6.2028 29.5016 6.62207 29.2236 7.00488C 28.9456 7.3877 28.5811 7.68164 28.1299 7.88672C 28.6904 8.08724 29.1074 8.38802 29.3809 8.78906C 29.6589 9.1901 29.7979 9.66406 29.7979 10.2109C 29.7979 11.0951 29.4743 11.8037 28.8271 12.3369C 28.1846 12.8701 27.3324 13.1367 26.2705 13.1367C 25.277 13.1367 24.4635 12.8747 23.8301 12.3506C 23.2012 11.8265 22.8867 11.1338 22.8867 10.2725L 24.8623 10.2725C 24.8623 10.6462 25.0013 10.9515 25.2793 11.1885C 25.5618 11.4255 25.9082 11.5439 26.3184 11.5439C 26.7878 11.5439 27.1546 11.4209 27.4189 11.1748C 27.6878 10.9242 27.8223 10.5938 27.8223 10.1836C 27.8223 9.1901 27.2754 8.69336 26.1816 8.69336L 25.1357 8.69336L 25.1357 7.14844ZM 37.9873 13L 31.165 13L 31.165 11.6465L 34.3848 8.21484C 34.8268 7.73177 35.1527 7.31022 35.3623 6.9502C 35.5765 6.59017 35.6836 6.24837 35.6836 5.9248C 35.6836 5.48275 35.5719 5.13639 35.3486 4.88574C 35.1253 4.63053 34.8063 4.50293 34.3916 4.50293C 33.945 4.50293 33.5918 4.65788 33.332 4.96777C 33.0768 5.27311 32.9492 5.67643 32.9492 6.17773L 30.9668 6.17773C 30.9668 5.57161 31.1104 5.0179 31.3975 4.5166C 31.6891 4.0153 32.0993 3.62337 32.6279 3.34082C 33.1566 3.05371 33.7559 2.91016 34.4258 2.91016C 35.4512 2.91016 36.2464 3.15625 36.8115 3.64844C 37.3812 4.14062 37.666 4.83561 37.666 5.7334C 37.666 6.22559 37.5384 6.72689 37.2832 7.2373C 37.028 7.74772 36.5905 8.34245 35.9707 9.02148L 33.708 11.4072L 37.9873 11.4072L 37.9873 13ZM 45.9033 8.88477C 45.9033 10.2611 45.6185 11.3138 45.0488 12.043C 44.4792 12.7721 43.6452 13.1367 42.5469 13.1367C 41.4622 13.1367 40.6328 12.779 40.0586 12.0635C 39.4844 11.348 39.1904 10.3226 39.1768 8.9873L 39.1768 7.15527C 39.1768 5.7653 39.4639 4.71029 40.0381 3.99023C 40.6169 3.27018 41.4486 2.91016 42.5332 2.91016C 43.6178 2.91016 44.4473 3.2679 45.0215 3.9834C 45.5957 4.69434 45.8896 5.71745 45.9033 7.05273L 45.9033 8.88477ZM 43.9277 6.875C 43.9277 6.05013 43.8138 5.45085 43.5859 5.07715C 43.3626 4.69889 43.0117 4.50977 42.5332 4.50977C 42.0684 4.50977 41.7243 4.68978 41.501 5.0498C 41.2822 5.40527 41.166 5.96354 41.1523 6.72461L 41.1523 9.14453C 41.1523 9.95573 41.2617 10.5596 41.4805 10.9561C 41.7038 11.348 42.0592 11.5439 42.5469 11.5439C 43.0299 11.5439 43.3786 11.3548 43.5928 10.9766C 43.807 10.5983 43.9186 10.0195 43.9277 9.24023L 43.9277 6.875ZM 53.9424 8.88477C 53.9424 10.2611 53.6576 11.3138 53.0879 12.043C 52.5182 12.7721 51.6842 13.1367 50.5859 13.1367C 49.5013 13.1367 48.6719 12.779 48.0977 12.0635C 47.5234 11.348 47.2295 10.3226 47.2158 8.9873L 47.2158 7.15527C 47.2158 5.7653 47.5029 4.71029 48.0771 3.99023C 48.6559 3.27018 49.4876 2.91016 50.5723 2.91016C 51.6569 2.91016 52.4863 3.2679 53.0605 3.9834C 53.6348 4.69434 53.9287 5.71745 53.9424 7.05273L 53.9424 8.88477ZM 51.9668 6.875C 51.9668 6.05013 51.8529 5.45085 51.625 5.07715C 51.4017 4.69889 51.0508 4.50977 50.5723 4.50977C 50.1074 4.50977 49.7633 4.68978 49.54 5.0498C 49.3213 5.40527 49.2051 5.96354 49.1914 6.72461L 49.1914 9.14453C 49.1914 9.95573 49.3008 10.5596 49.5195 10.9561C 49.7428 11.348 50.0983 11.5439 50.5859 11.5439C 51.069 11.5439 51.4176 11.3548 51.6318 10.9766C 51.846 10.5983 51.9577 10.0195 51.9668 9.24023L 51.9668 6.875Z"/>
<path id="path6_fill" d="M 0 0L 320 0L 320 30L 0 30L 0 0Z"/>
<path id="path7_fill" d="M 0.644531 13.6191C 0.644531 12.571 0.846354 11.6367 1.25 10.8164C 1.65365 9.99609 2.23307 9.36133 2.98828 8.91211C 3.75 8.46289 4.63216 8.23828 5.63477 8.23828C 7.06055 8.23828 8.22266 8.67448 9.12109 9.54688C 10.026 10.4193 10.5306 11.6042 10.6348 13.1016L 10.6543 13.8242C 10.6543 15.4453 10.2018 16.7474 9.29688 17.7305C 8.39193 18.707 7.17773 19.1953 5.6543 19.1953C 4.13086 19.1953 2.91341 18.707 2.00195 17.7305C 1.09701 16.7539 0.644531 15.4258 0.644531 13.7461L 0.644531 13.6191ZM 3.4668 13.8242C 3.4668 14.8268 3.6556 15.5951 4.0332 16.1289C 4.41081 16.6562 4.95117 16.9199 5.6543 16.9199C 6.33789 16.9199 6.87174 16.6595 7.25586 16.1387C 7.63997 15.6113 7.83203 14.7715 7.83203 13.6191C 7.83203 12.6361 7.63997 11.8743 7.25586 11.334C 6.87174 10.7936 6.33138 10.5234 5.63477 10.5234C 4.94466 10.5234 4.41081 10.7936 4.0332 11.334C 3.6556 11.8678 3.4668 12.6979 3.4668 13.8242Z"/>
<path id="path8_fill" d="M 3.36914 12.9648L 8.93555 14.9277L 8.93555 17.6621L 0.527344 14.0977L 0.527344 11.793L 8.93555 8.22852L 8.93555 10.9629L 3.36914 12.9648Z"/>
<path id="path9_fill" d="M 24 12C 24 18.6274 18.6274 24 12 24C 5.37258 24 0 18.6274 0 12C 0 5.37258 5.37258 0 12 0C 18.6274 0 24 5.37258 24 12Z"/>
<path id="path10_fill" d="M 10.7959 18.4155L 17.3379 18.4155L 17.3379 21.2354L 10.7959 21.2354L 10.7959 28.6475L 7.79883 28.6475L 7.79883 21.2354L 1.25684 21.2354L 1.25684 18.4155L 7.79883 18.4155L 7.79883 11.5674L 10.7959 11.5674L 10.7959 18.4155Z"/>
</defs>
</svg>
